<mxfile host="app.diagrams.net" agent="Mozilla/5.0 (Windows NT 10.0; Win64; x64) AppleWebKit/537.36 (KHTML, like Gecko) Chrome/128.0.0.0 Safari/537.36" version="24.7.8">
  <diagram id="C5RBs43oDa-KdzZeNtuy" name="Page-1">
    <mxGraphModel grid="1" page="1" gridSize="10" guides="1" tooltips="1" connect="1" arrows="1" fold="1" pageScale="1" pageWidth="827" pageHeight="1169" math="0" shadow="0">
      <root>
        <mxCell id="WIyWlLk6GJQsqaUBKTNV-0" />
        <mxCell id="WIyWlLk6GJQsqaUBKTNV-1" parent="WIyWlLk6GJQsqaUBKTNV-0" />
        <mxCell id="-rUjrN1eG381IFR63gHS-6" value="" style="edgeStyle=orthogonalEdgeStyle;rounded=0;orthogonalLoop=1;jettySize=auto;html=1;" edge="1" parent="WIyWlLk6GJQsqaUBKTNV-1" source="-rUjrN1eG381IFR63gHS-0" target="-rUjrN1eG381IFR63gHS-1">
          <mxGeometry relative="1" as="geometry" />
        </mxCell>
        <mxCell id="-rUjrN1eG381IFR63gHS-0" value="Start" style="ellipse;whiteSpace=wrap;html=1;" vertex="1" parent="WIyWlLk6GJQsqaUBKTNV-1">
          <mxGeometry x="340" y="120" width="120" height="80" as="geometry" />
        </mxCell>
        <mxCell id="-rUjrN1eG381IFR63gHS-7" value="" style="edgeStyle=orthogonalEdgeStyle;rounded=0;orthogonalLoop=1;jettySize=auto;html=1;" edge="1" parent="WIyWlLk6GJQsqaUBKTNV-1" source="-rUjrN1eG381IFR63gHS-1" target="-rUjrN1eG381IFR63gHS-2">
          <mxGeometry relative="1" as="geometry" />
        </mxCell>
        <mxCell id="-rUjrN1eG381IFR63gHS-1" value="Menerima pesanan&lt;div&gt;dan uang muka dari&amp;nbsp;&lt;/div&gt;&lt;div&gt;pelanggan&lt;/div&gt;" style="shape=trapezoid;perimeter=trapezoidPerimeter;whiteSpace=wrap;html=1;fixedSize=1;direction=west;" vertex="1" parent="WIyWlLk6GJQsqaUBKTNV-1">
          <mxGeometry x="329.5" y="240" width="141" height="70" as="geometry" />
        </mxCell>
        <mxCell id="-rUjrN1eG381IFR63gHS-14" style="edgeStyle=orthogonalEdgeStyle;rounded=0;orthogonalLoop=1;jettySize=auto;html=1;entryX=0.5;entryY=0;entryDx=0;entryDy=0;" edge="1" parent="WIyWlLk6GJQsqaUBKTNV-1" source="-rUjrN1eG381IFR63gHS-2" target="-rUjrN1eG381IFR63gHS-9">
          <mxGeometry relative="1" as="geometry" />
        </mxCell>
        <mxCell id="-rUjrN1eG381IFR63gHS-2" value="Mencatat pesanan, menghitung jumlah&lt;div&gt;uang dan membuat tanda terima&amp;nbsp;&lt;/div&gt;" style="shape=trapezoid;perimeter=trapezoidPerimeter;whiteSpace=wrap;html=1;fixedSize=1;direction=west;" vertex="1" parent="WIyWlLk6GJQsqaUBKTNV-1">
          <mxGeometry x="320" y="360" width="160" height="90" as="geometry" />
        </mxCell>
        <mxCell id="-rUjrN1eG381IFR63gHS-20" style="edgeStyle=orthogonalEdgeStyle;rounded=0;orthogonalLoop=1;jettySize=auto;html=1;entryX=1;entryY=0.5;entryDx=0;entryDy=0;" edge="1" parent="WIyWlLk6GJQsqaUBKTNV-1" source="-rUjrN1eG381IFR63gHS-5" target="-rUjrN1eG381IFR63gHS-21">
          <mxGeometry relative="1" as="geometry">
            <mxPoint x="200" y="540" as="targetPoint" />
          </mxGeometry>
        </mxCell>
        <mxCell id="-rUjrN1eG381IFR63gHS-5" value="TT 1" style="shape=document;whiteSpace=wrap;html=1;boundedLbl=1;" vertex="1" parent="WIyWlLk6GJQsqaUBKTNV-1">
          <mxGeometry x="240" y="640" width="120" height="80" as="geometry" />
        </mxCell>
        <mxCell id="-rUjrN1eG381IFR63gHS-10" value="" style="edgeStyle=orthogonalEdgeStyle;rounded=0;orthogonalLoop=1;jettySize=auto;html=1;" edge="1" parent="WIyWlLk6GJQsqaUBKTNV-1" source="-rUjrN1eG381IFR63gHS-9" target="-rUjrN1eG381IFR63gHS-5">
          <mxGeometry relative="1" as="geometry">
            <Array as="points">
              <mxPoint x="400" y="610" />
              <mxPoint x="300" y="610" />
            </Array>
          </mxGeometry>
        </mxCell>
        <mxCell id="-rUjrN1eG381IFR63gHS-9" value="Buku Order&amp;nbsp;&lt;div&gt;Penjualan&lt;/div&gt;" style="shape=document;whiteSpace=wrap;html=1;boundedLbl=1;" vertex="1" parent="WIyWlLk6GJQsqaUBKTNV-1">
          <mxGeometry x="340" y="504.5" width="120" height="80" as="geometry" />
        </mxCell>
        <mxCell id="-rUjrN1eG381IFR63gHS-17" value="" style="edgeStyle=orthogonalEdgeStyle;rounded=0;orthogonalLoop=1;jettySize=auto;html=1;" edge="1" parent="WIyWlLk6GJQsqaUBKTNV-1" source="-rUjrN1eG381IFR63gHS-11" target="-rUjrN1eG381IFR63gHS-15">
          <mxGeometry relative="1" as="geometry" />
        </mxCell>
        <mxCell id="-rUjrN1eG381IFR63gHS-11" value="TT 2" style="shape=document;whiteSpace=wrap;html=1;boundedLbl=1;" vertex="1" parent="WIyWlLk6GJQsqaUBKTNV-1">
          <mxGeometry x="470.5" y="640" width="120" height="80" as="geometry" />
        </mxCell>
        <mxCell id="-rUjrN1eG381IFR63gHS-13" style="edgeStyle=orthogonalEdgeStyle;rounded=0;orthogonalLoop=1;jettySize=auto;html=1;entryX=0.5;entryY=0;entryDx=0;entryDy=0;" edge="1" parent="WIyWlLk6GJQsqaUBKTNV-1" target="-rUjrN1eG381IFR63gHS-11">
          <mxGeometry relative="1" as="geometry">
            <mxPoint x="400" y="610" as="sourcePoint" />
          </mxGeometry>
        </mxCell>
        <mxCell id="-rUjrN1eG381IFR63gHS-15" value="D" style="triangle;whiteSpace=wrap;html=1;direction=south;" vertex="1" parent="WIyWlLk6GJQsqaUBKTNV-1">
          <mxGeometry x="500" y="800" width="44.5" height="40" as="geometry" />
        </mxCell>
        <mxCell id="-rUjrN1eG381IFR63gHS-19" value="" style="edgeStyle=orthogonalEdgeStyle;rounded=0;orthogonalLoop=1;jettySize=auto;html=1;" edge="1" parent="WIyWlLk6GJQsqaUBKTNV-1" source="-rUjrN1eG381IFR63gHS-16" target="-rUjrN1eG381IFR63gHS-18">
          <mxGeometry relative="1" as="geometry" />
        </mxCell>
        <mxCell id="-rUjrN1eG381IFR63gHS-16" value="Uang" style="shape=document;whiteSpace=wrap;html=1;boundedLbl=1;" vertex="1" parent="WIyWlLk6GJQsqaUBKTNV-1">
          <mxGeometry x="350" y="740" width="100" height="50" as="geometry" />
        </mxCell>
        <mxCell id="-rUjrN1eG381IFR63gHS-22" style="edgeStyle=orthogonalEdgeStyle;rounded=0;orthogonalLoop=1;jettySize=auto;html=1;entryX=1;entryY=0.5;entryDx=0;entryDy=0;" edge="1" parent="WIyWlLk6GJQsqaUBKTNV-1" source="-rUjrN1eG381IFR63gHS-18" target="-rUjrN1eG381IFR63gHS-23">
          <mxGeometry relative="1" as="geometry">
            <mxPoint x="650" y="880" as="targetPoint" />
            <Array as="points">
              <mxPoint x="600" y="880" />
              <mxPoint x="600" y="275" />
            </Array>
          </mxGeometry>
        </mxCell>
        <mxCell id="-rUjrN1eG381IFR63gHS-24" value="Text" style="edgeLabel;html=1;align=center;verticalAlign=middle;resizable=0;points=[];" vertex="1" connectable="0" parent="-rUjrN1eG381IFR63gHS-22">
          <mxGeometry x="0.8116" y="-4" relative="1" as="geometry">
            <mxPoint as="offset" />
          </mxGeometry>
        </mxCell>
        <mxCell id="-rUjrN1eG381IFR63gHS-18" value="Menginformasikan permintaan persediaan ke kepala gudang&amp;nbsp;" style="shape=trapezoid;perimeter=trapezoidPerimeter;whiteSpace=wrap;html=1;fixedSize=1;direction=west;" vertex="1" parent="WIyWlLk6GJQsqaUBKTNV-1">
          <mxGeometry x="320" y="830" width="160" height="100" as="geometry" />
        </mxCell>
        <mxCell id="-rUjrN1eG381IFR63gHS-21" value="TT 1" style="shape=document;whiteSpace=wrap;html=1;boundedLbl=1;" vertex="1" parent="WIyWlLk6GJQsqaUBKTNV-1">
          <mxGeometry x="50" y="517" width="100" height="55" as="geometry" />
        </mxCell>
        <mxCell id="-rUjrN1eG381IFR63gHS-27" value="" style="edgeStyle=orthogonalEdgeStyle;rounded=0;orthogonalLoop=1;jettySize=auto;html=1;" edge="1" parent="WIyWlLk6GJQsqaUBKTNV-1" source="-rUjrN1eG381IFR63gHS-23" target="-rUjrN1eG381IFR63gHS-26">
          <mxGeometry relative="1" as="geometry" />
        </mxCell>
        <mxCell id="-rUjrN1eG381IFR63gHS-23" value="Mencatat pada&amp;nbsp;&lt;div&gt;buku order gudang dan membuat&amp;nbsp; SJ dan Faktur&lt;/div&gt;" style="shape=trapezoid;perimeter=trapezoidPerimeter;whiteSpace=wrap;html=1;fixedSize=1;direction=west;" vertex="1" parent="WIyWlLk6GJQsqaUBKTNV-1">
          <mxGeometry x="630" y="240" width="170" height="70" as="geometry" />
        </mxCell>
        <mxCell id="-rUjrN1eG381IFR63gHS-34" value="" style="edgeStyle=orthogonalEdgeStyle;rounded=0;orthogonalLoop=1;jettySize=auto;html=1;entryX=0.632;entryY=0.16;entryDx=0;entryDy=0;entryPerimeter=0;" edge="1" parent="WIyWlLk6GJQsqaUBKTNV-1" source="-rUjrN1eG381IFR63gHS-26" target="-rUjrN1eG381IFR63gHS-35">
          <mxGeometry relative="1" as="geometry">
            <mxPoint x="817.5" y="585" as="targetPoint" />
          </mxGeometry>
        </mxCell>
        <mxCell id="-rUjrN1eG381IFR63gHS-26" value="Buku Order&amp;nbsp;&lt;div&gt;Gudang&lt;/div&gt;" style="shape=document;whiteSpace=wrap;html=1;boundedLbl=1;" vertex="1" parent="WIyWlLk6GJQsqaUBKTNV-1">
          <mxGeometry x="655" y="360" width="120" height="80" as="geometry" />
        </mxCell>
        <mxCell id="-rUjrN1eG381IFR63gHS-29" value="&lt;span style=&quot;white-space: pre;&quot;&gt;&#x9;&lt;/span&gt;&lt;span style=&quot;white-space: pre;&quot;&gt;&#x9;&lt;/span&gt;&lt;span style=&quot;white-space: pre;&quot;&gt;&#x9;&lt;/span&gt;3" style="shape=document;whiteSpace=wrap;html=1;boundedLbl=1;" vertex="1" parent="WIyWlLk6GJQsqaUBKTNV-1">
          <mxGeometry x="700" y="480" width="95" height="50" as="geometry" />
        </mxCell>
        <mxCell id="-rUjrN1eG381IFR63gHS-31" value="&lt;span style=&quot;white-space: pre;&quot;&gt;&#x9;&lt;/span&gt;&lt;span style=&quot;white-space: pre;&quot;&gt;&#x9;&lt;/span&gt;&lt;span style=&quot;white-space: pre;&quot;&gt;&#x9;&lt;/span&gt;2" style="shape=document;whiteSpace=wrap;html=1;boundedLbl=1;" vertex="1" parent="WIyWlLk6GJQsqaUBKTNV-1">
          <mxGeometry x="680" y="480" width="95" height="50" as="geometry" />
        </mxCell>
        <mxCell id="-rUjrN1eG381IFR63gHS-35" value="SJ 1" style="shape=document;whiteSpace=wrap;html=1;boundedLbl=1;" vertex="1" parent="WIyWlLk6GJQsqaUBKTNV-1">
          <mxGeometry x="655" y="480" width="95" height="50" as="geometry" />
        </mxCell>
        <mxCell id="-rUjrN1eG381IFR63gHS-241" style="edgeStyle=orthogonalEdgeStyle;rounded=0;orthogonalLoop=1;jettySize=auto;html=1;entryX=0;entryY=0.5;entryDx=0;entryDy=0;" edge="1" parent="WIyWlLk6GJQsqaUBKTNV-1" source="-rUjrN1eG381IFR63gHS-37" target="-rUjrN1eG381IFR63gHS-240">
          <mxGeometry relative="1" as="geometry" />
        </mxCell>
        <mxCell id="-rUjrN1eG381IFR63gHS-37" value="&lt;span style=&quot;white-space: pre;&quot;&gt;&#x9;&lt;/span&gt;&lt;span style=&quot;white-space: pre;&quot;&gt;&#x9;&lt;/span&gt;&lt;span style=&quot;white-space: pre;&quot;&gt;&#x9;&lt;/span&gt;2" style="shape=document;whiteSpace=wrap;html=1;boundedLbl=1;" vertex="1" parent="WIyWlLk6GJQsqaUBKTNV-1">
          <mxGeometry x="690" y="572" width="95" height="48" as="geometry" />
        </mxCell>
        <mxCell id="-rUjrN1eG381IFR63gHS-38" value="Faktur 1" style="shape=document;whiteSpace=wrap;html=1;boundedLbl=1;" vertex="1" parent="WIyWlLk6GJQsqaUBKTNV-1">
          <mxGeometry x="667.5" y="560" width="95" height="50" as="geometry" />
        </mxCell>
        <mxCell id="-rUjrN1eG381IFR63gHS-129" value="" style="edgeStyle=orthogonalEdgeStyle;rounded=0;orthogonalLoop=1;jettySize=auto;html=1;" edge="1" parent="WIyWlLk6GJQsqaUBKTNV-1" source="-rUjrN1eG381IFR63gHS-126" target="-rUjrN1eG381IFR63gHS-128">
          <mxGeometry relative="1" as="geometry" />
        </mxCell>
        <mxCell id="-rUjrN1eG381IFR63gHS-126" value="Barang dikirim&lt;div&gt;atau tidak?&lt;/div&gt;" style="rhombus;whiteSpace=wrap;html=1;" vertex="1" parent="WIyWlLk6GJQsqaUBKTNV-1">
          <mxGeometry x="660" y="650" width="125" height="80" as="geometry" />
        </mxCell>
        <mxCell id="-rUjrN1eG381IFR63gHS-127" value="" style="endArrow=classic;html=1;rounded=0;exitX=0.337;exitY=0.979;exitDx=0;exitDy=0;exitPerimeter=0;" edge="1" parent="WIyWlLk6GJQsqaUBKTNV-1" source="-rUjrN1eG381IFR63gHS-37">
          <mxGeometry width="50" height="50" relative="1" as="geometry">
            <mxPoint x="760" y="640" as="sourcePoint" />
            <mxPoint x="722" y="659" as="targetPoint" />
          </mxGeometry>
        </mxCell>
        <mxCell id="-rUjrN1eG381IFR63gHS-128" value="Memberikan surat jalan dan faktur #1 ke mandor" style="shape=trapezoid;perimeter=trapezoidPerimeter;whiteSpace=wrap;html=1;fixedSize=1;direction=west;" vertex="1" parent="WIyWlLk6GJQsqaUBKTNV-1">
          <mxGeometry x="636.25" y="760" width="172.5" height="80" as="geometry" />
        </mxCell>
        <mxCell id="-rUjrN1eG381IFR63gHS-240" value="D" style="triangle;whiteSpace=wrap;html=1;direction=south;" vertex="1" parent="WIyWlLk6GJQsqaUBKTNV-1">
          <mxGeometry x="795" y="640" width="45" height="40" as="geometry" />
        </mxCell>
      </root>
    </mxGraphModel>
  </diagram>
</mxfile>
